# xmcd
# 
# Track frame offsets:
#     150
#     20187
#     34025
#     51200
#     72950
#     83487
#     107000
#     120670
#     142137
#     163400
#     187662
# 
# Disc length: 2763
# 
# Revision: 16
# Processed by: cddbd v1.5.2PL0 Copyright (c) Steve Scherf et al.
# Submitted via: fre:ac v1.0.27
# 
DISCID=950ac90b
DTITLE=Susan Tedeschi - Just Won't Burn
DYEAR=1998
DGENRE=Blues Rock
TTITLE0=Rock Me Right
TTITLE1=You Need to Be With Me
TTITLE2=Little by Little
TTITLE3=It Hurt So Bad
TTITLE4=Found Someone New
TTITLE5=Looking for Answers
TTITLE6=Can't Leave You Alone
TTITLE7=Just Won't Burn
TTITLE8=Mama, He Treats Your Daughter Mean
TTITLE9=Angel from Montgomery
TTITLE10=Friar's Point
EXTD=
EXTT0=
EXTT1=
EXTT2=
EXTT3=
EXTT4=
EXTT5=
EXTT6=
EXTT7=
EXTT8=
EXTT9=
EXTT10=
PLAYORDER=
